<svg width="16" height="17" viewBox="0 0 16 17" fill="none" xmlns="http://www.w3.org/2000/svg">
<path d="M4.8335 5.16634H11.1668V3.83301C11.1668 2.49967 10.6668 1.83301 9.16683 1.83301H6.8335C5.3335 1.83301 4.8335 2.49967 4.8335 3.83301V5.16634Z" stroke="white" stroke-width="1.5" stroke-miterlimit="10" stroke-linecap="round" stroke-linejoin="round"/>
<path d="M10.6668 10.5V13.1667C10.6668 14.5 10.0002 15.1667 8.66683 15.1667H7.3335C6.00016 15.1667 5.3335 14.5 5.3335 13.1667V10.5H10.6668Z" stroke="white" stroke-width="1.5" stroke-miterlimit="10" stroke-linecap="round" stroke-linejoin="round"/>
<path d="M14 7.16699V10.5003C14 11.8337 13.3333 12.5003 12 12.5003H10.6667V10.5003H5.33333V12.5003H4C2.66667 12.5003 2 11.8337 2 10.5003V7.16699C2 5.83366 2.66667 5.16699 4 5.16699H12C13.3333 5.16699 14 5.83366 14 7.16699Z" stroke="white" stroke-width="1.5" stroke-miterlimit="10" stroke-linecap="round" stroke-linejoin="round"/>
<path d="M11.3332 10.5H10.5265H4.6665" stroke="white" stroke-width="1.5" stroke-miterlimit="10" stroke-linecap="round" stroke-linejoin="round"/>
<path d="M4.6665 7.83301H6.6665" stroke="white" stroke-width="1.5" stroke-miterlimit="10" stroke-linecap="round" stroke-linejoin="round"/>
</svg>
