<svg width="17" height="17" viewBox="0 0 17 17" fill="none" xmlns="http://www.w3.org/2000/svg">
<path d="M14.5 4.48665C12.28 4.26665 10.0467 4.15332 7.82 4.15332C6.5 4.15332 5.18 4.21999 3.86 4.35332L2.5 4.48665" stroke="#AA3D5A" stroke-width="1.5" stroke-linecap="round" stroke-linejoin="round"/>
<path d="M6.1665 3.81301L6.31317 2.93967C6.41984 2.30634 6.49984 1.83301 7.6265 1.83301H9.37317C10.4998 1.83301 10.5865 2.33301 10.6865 2.94634L10.8332 3.81301" stroke="#AA3D5A" stroke-width="1.5" stroke-linecap="round" stroke-linejoin="round"/>
<path d="M13.0664 6.59375L12.6331 13.3071C12.5598 14.3537 12.4998 15.1671 10.6398 15.1671H6.35977C4.49977 15.1671 4.43977 14.3537 4.36644 13.3071L3.93311 6.59375" stroke="#AA3D5A" stroke-width="1.5" stroke-linecap="round" stroke-linejoin="round"/>
<path d="M7.38672 11.5H9.60672" stroke="#AA3D5A" stroke-width="1.5" stroke-linecap="round" stroke-linejoin="round"/>
<path d="M6.8335 8.83301H10.1668" stroke="#AA3D5A" stroke-width="1.5" stroke-linecap="round" stroke-linejoin="round"/>
</svg>
